# Blender v2.79 (sub 0) OBJ File: 'mug-samp.blend'
# www.blender.org
mtllib cap-samp.mtl
o J_cap_Cylinder.001
v 0.000000 0.128898 -1.000000
v 0.104528 0.128898 -0.994522
v 0.207912 0.128898 -0.978148
v 0.309017 0.128898 -0.951057
v 0.406737 0.128898 -0.913545
v 0.500000 0.128898 -0.866025
v 0.587785 0.128898 -0.809017
v 0.669131 0.128898 -0.743145
v 0.743145 0.128898 -0.669131
v 0.809017 0.128898 -0.587785
v 0.866025 0.128898 -0.500000
v 0.913545 0.128898 -0.406737
v 0.951057 0.128898 -0.309017
v 0.978148 0.128898 -0.207912
v 0.994522 0.128898 -0.104528
v 1.000000 0.128898 0.000000
v 0.994522 0.128898 0.104529
v 0.978148 0.128898 0.207912
v 0.951056 0.128898 0.309017
v 0.913545 0.128898 0.406737
v 0.866025 0.128898 0.500000
v 0.809017 0.128898 0.587785
v 0.743145 0.128898 0.669131
v 0.669131 0.128898 0.743145
v 0.587786 0.128898 0.809017
v 0.500000 0.128898 0.866025
v 0.406737 0.128898 0.913545
v 0.309018 0.128898 0.951056
v 0.207913 0.128898 0.978147
v 0.104529 0.128898 0.994522
v 0.000001 0.128898 1.000000
v -0.104527 0.128898 0.994522
v -0.207910 0.128898 0.978148
v -0.309016 0.128898 0.951057
v -0.406735 0.128898 0.913546
v -0.499999 0.128898 0.866026
v -0.587784 0.128898 0.809018
v -0.669129 0.128898 0.743146
v -0.743143 0.128898 0.669132
v -0.809016 0.128898 0.587787
v -0.866024 0.128898 0.500002
v -0.913544 0.128898 0.406739
v -0.951056 0.128898 0.309019
v -0.978147 0.128898 0.207914
v -0.994522 0.128898 0.104531
v -1.000000 0.128898 0.000003
v -0.994522 0.128898 -0.104526
v -0.978148 0.128898 -0.207909
v -0.951057 0.128898 -0.309014
v -0.913547 0.128898 -0.406734
v -0.866027 0.128898 -0.499997
v -0.809019 0.128898 -0.587782
v -0.743147 0.128898 -0.669128
v -0.669133 0.128898 -0.743142
v -0.587788 0.128898 -0.809015
v -0.500003 0.128898 -0.866023
v -0.406740 0.128898 -0.913544
v -0.309021 0.128898 -0.951055
v -0.207916 0.128898 -0.978147
v -0.104533 0.128898 -0.994521
v -0.107414 -0.080390 -0.994214
v -0.002902 -0.080390 -0.999996
v 0.101642 -0.080390 -0.994821
v 0.205072 -0.080390 -0.978747
v 0.306256 -0.080390 -0.951949
v 0.404084 -0.080390 -0.914722
v 0.497485 -0.080390 -0.867473
v 0.585435 -0.080390 -0.810719
v 0.666971 -0.080390 -0.745084
v 0.741200 -0.080390 -0.671284
v 0.807308 -0.080390 -0.590131
v 0.864571 -0.080390 -0.502511
v 0.912361 -0.080390 -0.409386
v 0.950156 -0.080390 -0.311776
v 0.977540 -0.080390 -0.210749
v 0.994214 -0.080390 -0.107414
v 0.999996 -0.080390 -0.002902
v 0.994821 -0.080390 0.101642
v 0.978747 -0.080390 0.205072
v 0.951949 -0.080390 0.306256
v 0.914722 -0.080390 0.404084
v 0.867473 -0.080390 0.497485
v 0.810719 -0.080390 0.585435
v 0.745084 -0.080390 0.666971
v 0.671285 -0.080390 0.741200
v 0.590131 -0.080390 0.807308
v 0.502512 -0.080390 0.864570
v 0.409387 -0.080390 0.912361
v 0.311776 -0.080390 0.950155
v 0.210750 -0.080390 0.977540
v 0.107415 -0.080390 0.994214
v 0.002903 -0.080390 0.999996
v -0.101641 -0.080390 0.994821
v -0.205071 -0.080390 0.978747
v -0.306254 -0.080390 0.951950
v -0.404082 -0.080390 0.914723
v -0.497483 -0.080390 0.867474
v -0.585434 -0.080390 0.810721
v -0.666970 -0.080390 0.745085
v -0.741198 -0.080390 0.671286
v -0.807307 -0.080390 0.590132
v -0.864570 -0.080390 0.502513
v -0.912360 -0.080390 0.409388
v -0.950155 -0.080390 0.311778
v -0.977540 -0.080390 0.210752
v -0.994214 -0.080390 0.107417
v -0.999996 -0.080390 0.002905
v -0.994821 -0.080390 -0.101639
v -0.978748 -0.080390 -0.205069
v -0.951950 -0.080390 -0.306253
v -0.914723 -0.080390 -0.404081
v -0.867475 -0.080390 -0.497482
v -0.810722 -0.080390 -0.585432
v -0.745086 -0.080390 -0.666968
v -0.671287 -0.080390 -0.741197
v -0.590134 -0.080390 -0.807306
v -0.502515 -0.080390 -0.864569
v -0.409390 -0.080390 -0.912360
v -0.311780 -0.080390 -0.950154
v -0.210754 -0.080390 -0.977539
vn -0.0696 0.0000 -0.9976
vn -0.0273 0.6958 -0.7177
vn 0.0479 0.6958 -0.7166
vn 0.0351 0.0000 -0.9994
vn 0.1225 0.6958 -0.7077
vn 0.1393 0.0000 -0.9902
vn 0.1958 0.6958 -0.6910
vn 0.2421 0.0000 -0.9702
vn 0.2670 0.6958 -0.6667
vn 0.3422 0.0000 -0.9396
vn 0.3352 0.6958 -0.6352
vn 0.4385 0.0000 -0.8987
vn 0.3998 0.6958 -0.5967
vn 0.5301 0.0000 -0.8479
vn 0.4599 0.6958 -0.5516
vn 0.6158 0.0000 -0.7879
vn 0.5151 0.6958 -0.5005
vn 0.6948 0.0000 -0.7192
vn 0.5646 0.6958 -0.4439
vn 0.7662 0.0000 -0.6426
vn 0.6079 0.6958 -0.3825
vn 0.8291 0.0000 -0.5590
vn 0.6446 0.6958 -0.3168
vn 0.8830 0.0000 -0.4693
vn 0.6742 0.6958 -0.2477
vn 0.9272 0.0000 -0.3744
vn 0.6963 0.6958 -0.1759
vn 0.9613 0.0000 -0.2754
vn 0.7109 0.6958 -0.1021
vn 0.9848 0.0000 -0.1734
vn 0.7177 0.6958 -0.0273
vn 0.9976 0.0000 -0.0696
vn 0.7166 0.6958 0.0479
vn 0.9994 0.0000 0.0351
vn 0.7077 0.6958 0.1225
vn 0.9902 0.0000 0.1393
vn 0.6910 0.6958 0.1958
vn 0.9702 0.0000 0.2421
vn 0.6667 0.6958 0.2670
vn 0.9396 0.0000 0.3422
vn 0.6352 0.6958 0.3352
vn 0.8987 0.0000 0.4385
vn 0.5967 0.6958 0.3998
vn 0.8479 0.0000 0.5301
vn 0.5516 0.6958 0.4599
vn 0.7879 0.0000 0.6158
vn 0.5005 0.6958 0.5151
vn 0.7192 0.0000 0.6948
vn 0.4439 0.6958 0.5646
vn 0.6426 0.0000 0.7662
vn 0.3825 0.6958 0.6079
vn 0.5590 0.0000 0.8291
vn 0.3168 0.6958 0.6446
vn 0.4693 0.0000 0.8830
vn 0.2477 0.6958 0.6742
vn 0.3744 0.0000 0.9272
vn 0.1759 0.6958 0.6963
vn 0.2754 0.0000 0.9613
vn 0.1021 0.6958 0.7109
vn 0.1734 0.0000 0.9848
vn 0.0273 0.6958 0.7177
vn 0.0696 0.0000 0.9976
vn -0.0479 0.6958 0.7166
vn -0.0351 0.0000 0.9994
vn -0.1225 0.6958 0.7077
vn -0.1393 0.0000 0.9902
vn -0.1958 0.6958 0.6910
vn -0.2421 0.0000 0.9702
vn -0.2670 0.6958 0.6667
vn -0.3422 0.0000 0.9396
vn -0.3352 0.6958 0.6352
vn -0.4385 0.0000 0.8987
vn -0.3998 0.6958 0.5967
vn -0.5301 0.0000 0.8479
vn -0.4599 0.6958 0.5516
vn -0.6158 0.0000 0.7879
vn -0.5151 0.6958 0.5005
vn -0.6948 0.0000 0.7192
vn -0.5646 0.6958 0.4439
vn -0.7662 0.0000 0.6426
vn -0.6079 0.6958 0.3825
vn -0.8291 0.0000 0.5590
vn -0.6446 0.6958 0.3168
vn -0.8830 0.0000 0.4693
vn -0.6742 0.6958 0.2477
vn -0.9272 0.0000 0.3744
vn -0.6963 0.6958 0.1759
vn -0.9613 0.0000 0.2754
vn -0.7109 0.6958 0.1021
vn -0.9848 0.0000 0.1734
vn -0.7177 0.6958 0.0273
vn -0.9976 0.0000 0.0696
vn -0.7166 0.6958 -0.0479
vn -0.9994 0.0000 -0.0351
vn -0.7077 0.6958 -0.1225
vn -0.9902 0.0000 -0.1393
vn -0.6910 0.6958 -0.1958
vn -0.9702 0.0000 -0.2421
vn -0.6667 0.6958 -0.2670
vn -0.9396 0.0000 -0.3422
vn -0.6352 0.6958 -0.3352
vn -0.8987 0.0000 -0.4385
vn -0.5967 0.6958 -0.3998
vn -0.8479 0.0000 -0.5301
vn -0.5516 0.6958 -0.4599
vn -0.7879 0.0000 -0.6158
vn -0.5005 0.6958 -0.5151
vn -0.7192 0.0000 -0.6948
vn -0.4439 0.6958 -0.5646
vn -0.6426 0.0000 -0.7662
vn -0.3825 0.6958 -0.6079
vn -0.5590 0.0000 -0.8291
vn -0.3168 0.6958 -0.6446
vn -0.4693 0.0000 -0.8830
vn -0.2477 0.6958 -0.6742
vn -0.3744 0.0000 -0.9272
vn -0.1759 0.6958 -0.6963
vn -0.2754 0.0000 -0.9613
vn -0.1021 0.6958 -0.7109
vn -0.1734 0.0000 -0.9848
usemtl None
s 1
f 61//1 1//2 2//3 62//4
f 62//4 2//3 3//5 63//6
f 63//6 3//5 4//7 64//8
f 64//8 4//7 5//9 65//10
f 65//10 5//9 6//11 66//12
f 66//12 6//11 7//13 67//14
f 67//14 7//13 8//15 68//16
f 68//16 8//15 9//17 69//18
f 69//18 9//17 10//19 70//20
f 70//20 10//19 11//21 71//22
f 71//22 11//21 12//23 72//24
f 72//24 12//23 13//25 73//26
f 73//26 13//25 14//27 74//28
f 74//28 14//27 15//29 75//30
f 75//30 15//29 16//31 76//32
f 76//32 16//31 17//33 77//34
f 77//34 17//33 18//35 78//36
f 78//36 18//35 19//37 79//38
f 79//38 19//37 20//39 80//40
f 80//40 20//39 21//41 81//42
f 81//42 21//41 22//43 82//44
f 82//44 22//43 23//45 83//46
f 83//46 23//45 24//47 84//48
f 84//48 24//47 25//49 85//50
f 85//50 25//49 26//51 86//52
f 86//52 26//51 27//53 87//54
f 87//54 27//53 28//55 88//56
f 88//56 28//55 29//57 89//58
f 89//58 29//57 30//59 90//60
f 90//60 30//59 31//61 91//62
f 91//62 31//61 32//63 92//64
f 92//64 32//63 33//65 93//66
f 93//66 33//65 34//67 94//68
f 94//68 34//67 35//69 95//70
f 95//70 35//69 36//71 96//72
f 96//72 36//71 37//73 97//74
f 97//74 37//73 38//75 98//76
f 98//76 38//75 39//77 99//78
f 99//78 39//77 40//79 100//80
f 100//80 40//79 41//81 101//82
f 101//82 41//81 42//83 102//84
f 102//84 42//83 43//85 103//86
f 103//86 43//85 44//87 104//88
f 104//88 44//87 45//89 105//90
f 105//90 45//89 46//91 106//92
f 106//92 46//91 47//93 107//94
f 107//94 47//93 48//95 108//96
f 108//96 48//95 49//97 109//98
f 109//98 49//97 50//99 110//100
f 110//100 50//99 51//101 111//102
f 111//102 51//101 52//103 112//104
f 112//104 52//103 53//105 113//106
f 113//106 53//105 54//107 114//108
f 114//108 54//107 55//109 115//110
f 115//110 55//109 56//111 116//112
f 116//112 56//111 57//113 117//114
f 117//114 57//113 58//115 118//116
f 118//116 58//115 59//117 119//118
f 2//3 1//2 60//119 59//117 58//115 57//113 56//111 55//109 54//107 53//105 52//103 51//101 50//99 49//97 48//95 47//93 46//91 45//89 44//87 43//85 42//83 41//81 40//79 39//77 38//75 37//73 36//71 35//69 34//67 33//65 32//63 31//61 30//59 29//57 28//55 27//53 26//51 25//49 24//47 23//45 22//43 21//41 20//39 19//37 18//35 17//33 16//31 15//29 14//27 13//25 12//23 11//21 10//19 9//17 8//15 7//13 6//11 5//9 4//7 3//5
f 119//118 59//117 60//119 120//120
f 120//120 60//119 1//2 61//1
